<svg width="782" height="301" viewBox="0 0 782 301" fill="none" xmlns="http://www.w3.org/2000/svg">
<path d="M237.31 247.787C130.31 149.787 169.549 156.787 63.3102 247.787C-42.9284 338.787 87.8102 0.787283 162.81 5.7873C237.81 10.7873 344.31 345.787 237.31 247.787Z" stroke="#0E8D91" stroke-width="10"/>
<path d="M144.971 7.28613C151.842 2.76099 159.042 0.888185 166.233 4.13281C173.466 7.39638 180.831 15.8932 187.849 32.4824C191.321 40.6881 191.52 48.3695 189.273 55.6045C187.023 62.852 182.308 69.6819 175.904 76.1475C163.088 89.0862 143.606 100.468 123.966 110.743C104.363 120.998 84.5777 130.162 71.2985 138.627C64.6635 142.857 59.5753 146.958 56.946 150.991C55.6254 153.017 54.9053 155.055 54.948 157.102C54.9908 159.154 55.7998 161.157 57.4265 163.107C63.6548 170.577 65.8762 176.914 65.7673 181.875C65.6586 186.823 63.2319 190.469 60.0105 192.597C56.7747 194.733 52.7549 195.327 49.4821 194.182C46.244 193.048 43.6707 190.19 43.3093 185.251L43.2897 184.992L43.0671 184.858L42.8503 184.722C40.6488 183.271 39.6302 180.487 39.7028 176.467C39.7776 172.327 41.013 167.014 43.1423 160.875C47.3979 148.605 55.1714 133.18 64.0886 117.522C81.9215 86.2104 104.267 54.0766 111.995 44.6035C113.767 42.4307 115.858 39.5713 118.201 36.3779C120.548 33.1796 123.156 29.637 125.976 26.0801C131.623 18.9584 138.093 11.8164 144.971 7.28613Z" fill="#0E8D91" stroke="#0E8D91"/>
<path d="M34.9536 192.389L34.9706 192.318C39.8608 172.203 48.3934 160.438 55.6714 153.706C59.3125 150.338 62.6453 148.225 65.0609 146.955C66.2686 146.321 67.2475 145.897 67.9207 145.633C68.2572 145.501 68.5176 145.409 68.6919 145.35C68.7791 145.321 68.8449 145.299 68.8879 145.286C68.9091 145.279 68.9248 145.275 68.9348 145.272L68.9482 145.268L68.9478 145.267L68.9674 145.262L68.9867 145.255C79.0796 141.439 92.6465 142.882 106.612 146.907C120.557 150.926 134.805 157.491 146.202 163.805C151.898 166.961 156.877 170.051 160.743 172.724C164.624 175.407 167.345 177.643 168.563 179.09C168.866 179.45 169.054 179.736 169.148 179.948C169.199 180.063 169.212 180.13 169.214 180.163C169.187 180.176 169.13 180.198 169.02 180.213C168.789 180.242 168.431 180.227 167.916 180.135C165.849 179.769 161.863 178.3 155.522 175.334C152.1 173.733 149.676 172.857 146.325 173.983C143.064 175.08 138.948 178.068 132.005 183.889C118.062 195.578 92.4956 218.898 38.995 262.399C38.3452 262.927 37.7316 263.207 37.1588 263.296C36.5904 263.384 36.0274 263.289 35.4632 263.012C34.3124 262.447 33.1591 261.125 32.0811 259.095C29.9346 255.052 28.2393 248.494 27.3724 240.779C25.6385 225.345 27.2471 205.542 34.9166 192.452L34.9536 192.389Z" fill="#0E8D91" stroke="#0E8D91"/>
<path d="M311.56 249.16C310.28 249.16 309.16 248.787 308.2 248.04C307.24 247.293 306.76 245.693 306.76 243.24C306.76 242.12 307.16 240.333 307.96 237.88C308.76 235.427 309.827 232.547 311.16 229.24C312.547 225.88 314.093 222.333 315.8 218.6C317.507 214.867 319.293 211.16 321.16 207.48C323.027 203.8 324.84 200.387 326.6 197.24C328.36 194.093 329.987 191.427 331.48 189.24C333.027 187 334.28 185.507 335.24 184.76C336.627 183.747 338.013 183.24 339.4 183.24C340.147 183.24 340.867 183.32 341.56 183.48C342.307 183.64 342.92 183.907 343.4 184.28C344.52 184.973 345.507 186.307 346.36 188.28C347.267 190.2 348.067 192.52 348.76 195.24C349.507 197.96 350.12 200.893 350.6 204.04C351.133 207.133 351.587 210.2 351.96 213.24C353.987 212.973 355.373 212.84 356.12 212.84C357.72 212.84 359.133 213.08 360.36 213.56C361.587 213.987 362.227 214.893 362.28 216.28C362.387 217.613 361.96 218.733 361 219.64C360.093 220.547 358.92 221.213 357.48 221.64C356.84 221.853 355.293 222.2 352.84 222.68C353 225.4 353.08 227.693 353.08 229.56C353.08 234.307 352.813 237.987 352.28 240.6C351.8 243.213 351.16 245.08 350.36 246.2C349.613 247.32 348.813 247.987 347.96 248.2C347.16 248.467 346.44 248.6 345.8 248.6C345.747 248.6 345.693 248.6 345.64 248.6C344.093 248.6 342.947 248.2 342.2 247.4C341.507 246.6 341.16 245.267 341.16 243.4V237.72C341.16 235.96 341.133 233.987 341.08 231.8C341.027 229.613 340.92 227.293 340.76 224.84C337.613 225.373 334.467 225.907 331.32 226.44C328.227 226.92 325.56 227.347 323.32 227.72C322.307 230.12 321.427 232.28 320.68 234.2C319.933 236.067 319.427 237.533 319.16 238.6C318.36 241.213 317.613 243.267 316.92 244.76C316.227 246.2 315.56 247.213 314.92 247.8C314.333 248.44 313.773 248.813 313.24 248.92C312.707 249.08 312.147 249.16 311.56 249.16ZM327.72 217.88C329.96 217.347 332.12 216.867 334.2 216.44C336.28 215.96 338.253 215.533 340.12 215.16C339.853 211.853 339.533 208.627 339.16 205.48C338.787 202.333 338.36 199.533 337.88 197.08C336.493 199.747 334.867 202.947 333 206.68C331.187 210.36 329.427 214.093 327.72 217.88ZM480.857 208.92C480.857 209.667 479.844 210.493 477.817 211.4C475.79 212.307 473.07 213.267 469.657 214.28C466.297 215.24 462.537 216.2 458.377 217.16C454.217 218.067 450.004 218.893 445.737 219.64C444.244 224.6 442.777 229.613 441.337 234.68C439.897 239.693 438.644 244.387 437.577 248.76C437.31 249.933 436.697 250.813 435.737 251.4C434.83 251.987 433.844 252.28 432.777 252.28C431.444 252.28 430.35 251.907 429.497 251.16C428.644 250.467 428.217 249.56 428.217 248.44C428.217 246.52 428.75 243.453 429.817 239.24C430.884 235.027 432.164 230.253 433.657 224.92C431.204 228.44 428.724 231.667 426.217 234.6C423.71 237.533 421.337 239.933 419.097 241.8C415.577 244.68 411.924 246.973 408.137 248.68C404.404 250.44 400.67 251.32 396.937 251.32C390.964 251.32 386.617 249.827 383.897 246.84C381.177 243.853 379.817 239.427 379.817 233.56C379.817 230.2 380.19 226.867 380.937 223.56C381.737 220.2 382.804 217.053 384.137 214.12C385.47 211.133 386.99 208.493 388.697 206.2C390.404 203.907 392.19 202.12 394.057 200.84C395.924 199.507 397.79 198.84 399.657 198.84C404.244 198.84 407.577 200.067 409.657 202.52C411.79 204.92 412.857 207.88 412.857 211.4C412.857 213.8 412.164 216.093 410.777 218.28C409.444 220.467 407.657 222.493 405.417 224.36C403.177 226.173 400.67 227.72 397.897 229C395.177 230.28 392.43 231.213 389.657 231.8C389.657 232.173 389.657 232.573 389.657 233C389.657 236.413 390.297 238.76 391.577 240.04C392.91 241.32 395.044 241.96 397.977 241.96C402.83 241.96 407.657 240.36 412.457 237.16C417.31 233.907 422.11 228.947 426.857 222.28C424.67 222.44 422.777 222.52 421.177 222.52C418.884 222.52 417.39 222.173 416.697 221.48C416.057 220.733 415.737 219.693 415.737 218.36C415.737 217.933 415.924 217.427 416.297 216.84C416.724 216.2 417.23 215.64 417.817 215.16C418.457 214.627 419.124 214.36 419.817 214.36C422.11 214.147 424.324 213.933 426.457 213.72C428.644 213.507 430.724 213.267 432.697 213C436.377 206.707 439.95 199.427 443.417 191.16C444.91 186.947 446.457 183.587 448.057 181.08C449.71 178.52 451.417 177.24 453.177 177.24C454.084 177.24 454.91 177.613 455.657 178.36C456.457 179.053 456.857 180.173 456.857 181.72C456.857 182.413 456.457 184.147 455.657 186.92C454.91 189.64 453.897 193.08 452.617 197.24C451.337 201.4 449.95 205.933 448.457 210.84C457.044 209.453 463.684 208.2 468.377 207.08C473.07 205.907 476.03 205.32 477.257 205.32C478.377 205.32 479.257 205.693 479.897 206.44C480.537 207.187 480.857 208.013 480.857 208.92ZM390.777 223.88C392.857 222.76 394.857 221.48 396.777 220.04C398.697 218.547 400.27 217.053 401.497 215.56C402.724 214.013 403.337 212.547 403.337 211.16C403.337 209.933 403.097 209.053 402.617 208.52C402.19 207.987 401.31 207.72 399.977 207.72C398.804 207.72 397.63 208.493 396.457 210.04C395.284 211.587 394.19 213.613 393.177 216.12C392.217 218.573 391.417 221.16 390.777 223.88ZM475.619 253.24C473.165 253.24 471.405 252.547 470.339 251.16C469.272 249.773 468.739 247.747 468.739 245.08C468.739 242.627 469.192 239.427 470.099 235.48C471.059 231.48 472.312 227.027 473.859 222.12C475.459 217.16 477.245 212.067 479.219 206.84C481.192 201.56 483.245 196.387 485.379 191.32C487.512 186.2 489.592 181.507 491.619 177.24C492.579 175.373 493.592 174.093 494.659 173.4C495.725 172.707 496.899 172.36 498.179 172.36C499.405 172.36 500.445 172.707 501.299 173.4C502.152 174.04 502.579 175.08 502.579 176.52C502.579 176.84 502.152 178.067 501.299 180.2C500.445 182.28 499.325 185 497.939 188.36C496.552 191.667 495.032 195.4 493.379 199.56C491.725 203.667 490.072 207.96 488.419 212.44C486.765 216.867 485.272 221.24 483.939 225.56C482.605 229.88 481.539 233.88 480.739 237.56C482.605 235.053 484.605 232.28 486.739 229.24C488.925 226.147 491.139 223.08 493.379 220.04C495.672 216.947 497.912 214.12 500.099 211.56C502.339 209 504.419 206.947 506.339 205.4C508.259 203.853 509.939 203.08 511.379 203.08C514.045 203.08 516.179 203.827 517.779 205.32C519.432 206.76 520.259 209.267 520.259 212.84C520.259 214.493 519.939 216.493 519.299 218.84C518.659 221.133 517.885 223.56 516.979 226.12C516.125 228.627 515.379 231.053 514.739 233.4C514.099 235.747 513.779 237.8 513.779 239.56C513.779 240.52 514.232 241 515.139 241C517.752 241 520.392 240.44 523.059 239.32C525.779 238.2 528.365 236.813 530.819 235.16C533.325 233.453 535.592 231.773 537.619 230.12C539.699 228.413 541.379 227 542.659 225.88C543.565 225.027 544.392 224.467 545.139 224.2C545.885 223.88 546.579 223.72 547.219 223.72C549.405 223.72 550.499 224.813 550.499 227C550.499 227.427 550.419 227.96 550.259 228.6C550.099 229.187 549.592 229.933 548.739 230.84C547.885 231.747 546.605 233.027 544.899 234.68C543.192 236.333 541.192 238.093 538.899 239.96C536.659 241.827 534.205 243.613 531.539 245.32C528.925 246.973 526.232 248.333 523.459 249.4C520.685 250.467 517.992 251 515.379 251C511.432 251 508.392 249.88 506.259 247.64C504.125 245.453 503.059 242.467 503.059 238.68C503.059 236.067 503.592 232.787 504.659 228.84C505.725 224.84 506.925 220.76 508.259 216.6C506.392 218.413 504.445 220.573 502.419 223.08C500.392 225.533 498.339 228.147 496.259 230.92C494.179 233.64 492.125 236.333 490.099 239C488.125 241.613 486.232 244.013 484.419 246.2C482.605 248.333 480.952 250.04 479.459 251.32C477.965 252.6 476.685 253.24 475.619 253.24ZM578.484 212.36C578.484 215.827 576.51 219.267 572.564 222.68C568.67 226.04 562.617 229.027 554.404 231.64C554.404 231.693 554.404 231.773 554.404 231.88C554.404 233.64 554.617 235.053 555.044 236.12C555.47 237.133 556.404 237.64 557.844 237.64C559.977 237.64 562.35 237 564.964 235.72C567.63 234.387 570.377 232.707 573.204 230.68C576.084 228.6 578.884 226.413 581.604 224.12C584.324 221.827 586.83 219.667 589.124 217.64C591.47 215.56 593.444 213.88 595.044 212.6C596.697 211.267 597.79 210.6 598.324 210.6C599.444 210.6 600.377 211.027 601.124 211.88C601.924 212.733 602.324 214.013 602.324 215.72C602.324 216.68 602.27 217.827 602.164 219.16C604.51 215.107 607.23 211.773 610.324 209.16C613.417 206.493 616.457 204.52 619.444 203.24C622.484 201.907 625.07 201.24 627.204 201.24C629.604 201.24 631.23 201.72 632.084 202.68C632.937 203.587 633.364 204.547 633.364 205.56C633.364 206.147 633.23 206.733 632.964 207.32C632.75 207.853 632.164 208.44 631.204 209.08C630.297 209.72 628.777 210.467 626.644 211.32C623.817 212.387 621.124 213.64 618.564 215.08C616.057 216.52 613.737 218.493 611.604 221C609.524 223.453 607.63 226.76 605.924 230.92C604.27 235.027 602.884 240.307 601.764 246.76C601.39 248.573 600.804 249.8 600.004 250.44C599.204 251.133 598.27 251.48 597.204 251.48C597.097 251.48 596.91 251.48 596.644 251.48C596.164 251.533 595.657 251.48 595.124 251.32C594.644 251.213 594.164 250.76 593.684 249.96C593.257 249.213 592.91 247.907 592.644 246.04C592.377 244.173 592.244 241.507 592.244 238.04C592.244 235.96 592.324 233.773 592.484 231.48C592.697 229.133 592.964 226.707 593.284 224.2C590.564 226.867 587.657 229.56 584.564 232.28C581.47 235 578.27 237.507 574.964 239.8C571.71 242.04 568.51 243.853 565.364 245.24C562.27 246.627 559.39 247.32 556.724 247.32C553.15 247.32 550.217 246.173 547.924 243.88C545.684 241.533 544.564 237.933 544.564 233.08C544.564 228.28 545.204 223.933 546.484 220.04C547.817 216.093 549.524 212.707 551.604 209.88C553.684 207.053 555.897 204.893 558.244 203.4C560.644 201.853 562.884 201.08 564.964 201.08C569.39 201.08 572.75 202.147 575.044 204.28C577.337 206.36 578.484 209.053 578.484 212.36ZM555.444 224.52C556.83 223.827 558.297 223.027 559.844 222.12C561.444 221.16 562.937 220.173 564.324 219.16C565.71 218.093 566.83 217.053 567.684 216.04C568.59 215.027 569.044 214.067 569.044 213.16C569.044 211.667 568.617 210.76 567.764 210.44C566.964 210.067 565.87 209.88 564.484 209.88C563.044 209.88 561.737 210.653 560.564 212.2C559.39 213.693 558.377 215.56 557.524 217.8C556.67 220.04 555.977 222.28 555.444 224.52ZM631.861 249.08C630.207 249.08 628.661 248.573 627.221 247.56C625.781 246.547 625.061 244.893 625.061 242.6C625.061 240.84 625.514 239.427 626.421 238.36C627.327 237.24 628.367 236.413 629.541 235.88C630.767 235.347 631.807 235.08 632.661 235.08C633.567 235.08 634.581 235.293 635.701 235.72C636.874 236.093 637.887 236.813 638.741 237.88C639.594 238.893 640.021 240.36 640.021 242.28C640.021 244.147 639.221 245.747 637.621 247.08C636.074 248.413 634.154 249.08 631.861 249.08ZM666.169 249.16C664.889 249.16 663.769 248.787 662.809 248.04C661.849 247.293 661.369 245.693 661.369 243.24C661.369 242.12 661.769 240.333 662.569 237.88C663.369 235.427 664.436 232.547 665.769 229.24C667.156 225.88 668.703 222.333 670.409 218.6C672.116 214.867 673.903 211.16 675.769 207.48C677.636 203.8 679.449 200.387 681.209 197.24C682.969 194.093 684.596 191.427 686.089 189.24C687.636 187 688.889 185.507 689.849 184.76C691.236 183.747 692.623 183.24 694.009 183.24C694.756 183.24 695.476 183.32 696.169 183.48C696.916 183.64 697.529 183.907 698.009 184.28C699.129 184.973 700.116 186.307 700.969 188.28C701.876 190.2 702.676 192.52 703.369 195.24C704.116 197.96 704.729 200.893 705.209 204.04C705.743 207.133 706.196 210.2 706.569 213.24C708.596 212.973 709.983 212.84 710.729 212.84C712.329 212.84 713.743 213.08 714.969 213.56C716.196 213.987 716.836 214.893 716.889 216.28C716.996 217.613 716.569 218.733 715.609 219.64C714.703 220.547 713.529 221.213 712.089 221.64C711.449 221.853 709.903 222.2 707.449 222.68C707.609 225.4 707.689 227.693 707.689 229.56C707.689 234.307 707.423 237.987 706.889 240.6C706.409 243.213 705.769 245.08 704.969 246.2C704.223 247.32 703.423 247.987 702.569 248.2C701.769 248.467 701.049 248.6 700.409 248.6C700.356 248.6 700.303 248.6 700.249 248.6C698.703 248.6 697.556 248.2 696.809 247.4C696.116 246.6 695.769 245.267 695.769 243.4V237.72C695.769 235.96 695.743 233.987 695.689 231.8C695.636 229.613 695.529 227.293 695.369 224.84C692.223 225.373 689.076 225.907 685.929 226.44C682.836 226.92 680.169 227.347 677.929 227.72C676.916 230.12 676.036 232.28 675.289 234.2C674.543 236.067 674.036 237.533 673.769 238.6C672.969 241.213 672.223 243.267 671.529 244.76C670.836 246.2 670.169 247.213 669.529 247.8C668.943 248.44 668.383 248.813 667.849 248.92C667.316 249.08 666.756 249.16 666.169 249.16ZM682.329 217.88C684.569 217.347 686.729 216.867 688.809 216.44C690.889 215.96 692.863 215.533 694.729 215.16C694.463 211.853 694.143 208.627 693.769 205.48C693.396 202.333 692.969 199.533 692.489 197.08C691.103 199.747 689.476 202.947 687.609 206.68C685.796 210.36 684.036 214.093 682.329 217.88ZM746.627 204.28C744.067 204.28 742.254 204.013 741.187 203.48C740.12 202.947 739.48 202.307 739.267 201.56C739.054 200.813 738.947 200.173 738.947 199.64C738.947 199.587 738.947 199.56 738.947 199.56C738.947 198.387 739.48 197.267 740.547 196.2C741.614 195.08 743.107 194.307 745.027 193.88C746.627 193.56 748.52 193.24 750.707 192.92C752.947 192.547 755.294 192.227 757.747 191.96C760.254 191.64 762.654 191.4 764.947 191.24C767.24 191.08 769.267 191 771.027 191C773.374 191 775.187 191.347 776.467 192.04C777.747 192.68 778.627 193.427 779.107 194.28C779.64 195.133 779.907 195.853 779.907 196.44C779.907 196.973 779.774 197.507 779.507 198.04C779.24 198.573 778.574 199.107 777.507 199.64C776.494 200.173 774.867 200.68 772.627 201.16C770.387 201.64 767.294 202.093 763.347 202.52C762.974 202.573 762.574 202.627 762.147 202.68C761.774 204.973 761.32 207.72 760.787 210.92C760.254 214.067 759.667 217.373 759.027 220.84C758.44 224.253 757.854 227.533 757.267 230.68C756.734 233.773 756.254 236.413 755.827 238.6C758.014 238.387 759.934 238.227 761.587 238.12C763.294 238.013 764.44 237.96 765.027 237.96C766.894 237.96 768.174 238.36 768.867 239.16C769.56 239.907 769.907 240.893 769.907 242.12C769.907 242.6 769.054 243.347 767.347 244.36C765.64 245.373 763.267 246.467 760.227 247.64C757.24 248.813 753.8 249.853 749.907 250.76C747.347 251.347 744.814 251.8 742.307 252.12C739.8 252.44 737.987 252.6 736.867 252.6C734.68 252.6 733.267 252.2 732.627 251.4C732.04 250.6 731.747 249.587 731.747 248.36C731.747 247.293 732.067 246.2 732.707 245.08C733.4 243.96 734.36 243.16 735.587 242.68C736.867 242.2 738.28 241.747 739.827 241.32C741.374 240.893 742.974 240.52 744.627 240.2C744.734 238.813 744.947 236.973 745.267 234.68C745.587 232.387 745.934 229.88 746.307 227.16C746.734 224.387 747.16 221.587 747.587 218.76C748.067 215.88 748.52 213.187 748.947 210.68C749.427 208.12 749.827 205.907 750.147 204.04C748.6 204.2 747.427 204.28 746.627 204.28Z" fill="#0E8D91"/>
</svg>
