<svg width="1383" height="491" viewBox="0 0 1383 491" fill="none" xmlns="http://www.w3.org/2000/svg">
<path d="M422.571 402.851C232.49 243.822 302.196 255.181 113.468 402.851C-75.2604 550.521 156.991 2.03201 290.225 10.1458C423.459 18.2595 612.652 561.88 422.571 402.851Z" stroke="#0E8D91" stroke-width="20"/>
<path d="M258.304 12.3281C270.57 4.94885 283.521 1.84203 296.481 7.18359C309.469 12.5368 322.596 26.4249 335.071 53.3584C341.266 66.7339 341.623 79.2641 337.611 91.0664C333.593 102.885 325.181 114.01 313.778 124.526C290.965 145.565 256.307 164.055 221.416 180.729C186.563 197.386 151.456 212.237 127.885 225.963C116.107 232.822 107.126 239.444 102.499 245.928C100.179 249.179 98.9271 252.432 99.0014 255.686C99.0758 258.946 100.48 262.134 103.328 265.254C114.427 277.414 118.416 287.763 118.22 295.897C118.025 304.015 113.662 310.025 107.836 313.539C101.996 317.062 94.7172 318.056 88.7612 316.151C82.839 314.257 78.1987 309.495 77.5493 301.39L77.5268 301.12L77.2905 300.99L76.8901 300.761C72.8221 298.313 71.0126 293.658 71.142 287.111C71.2757 280.352 73.4814 271.698 77.268 261.726C84.8376 241.79 98.6585 216.74 114.502 191.327C146.188 140.505 185.895 88.3449 199.639 72.9551C202.781 69.4369 206.487 64.8044 210.653 59.6191C214.822 54.4291 219.458 48.6759 224.473 42.8984C234.508 31.3372 246.031 19.7119 258.304 12.3281Z" fill="#0E8D91" stroke="#0E8D91"/>
<path d="M260.891 266.284C271.022 271.411 279.877 276.432 286.758 280.777C293.652 285.131 298.525 288.784 300.726 291.172C301.275 291.768 301.636 292.262 301.824 292.649C302.022 293.057 301.978 293.235 301.946 293.29C301.921 293.334 301.806 293.463 301.326 293.52C300.861 293.575 300.178 293.543 299.247 293.392C295.517 292.788 288.392 290.384 277.132 285.573C271.078 282.986 267.054 281.6 261.49 283.37C258.742 284.244 255.641 285.879 251.739 288.462C247.834 291.046 243.1 294.597 237.082 299.322C213.004 318.224 168.221 356.043 73.1884 426.627C70.7887 428.409 68.2066 429.199 65.5984 429.092C62.9826 428.986 60.2973 427.976 57.7132 426.088C52.5378 422.306 47.8366 415.048 45.0532 404.815C39.4911 384.365 41.6355 352.193 62.7219 312.848L62.7482 312.799L62.7631 312.745L63.1755 311.222C71.9391 279.452 86.8573 260.732 99.6336 249.937C106.126 244.451 112.072 241.006 116.388 238.935C118.545 237.899 120.296 237.206 121.503 236.773C122.106 236.557 122.575 236.406 122.89 236.31C123.047 236.261 123.166 236.226 123.245 236.204C123.285 236.193 123.314 236.184 123.333 236.179C123.343 236.177 123.35 236.174 123.354 236.173L123.359 236.172L123.38 236.167L123.401 236.159C141.447 229.928 165.648 232.295 190.48 238.833C215.289 245.364 240.629 256.03 260.891 266.284Z" fill="#0E8D91" stroke="#0E8D91"/>
<path d="M559.48 417.78C557.24 417.78 555.28 417.127 553.6 415.82C551.92 414.513 551.08 411.713 551.08 407.42C551.08 405.46 551.78 402.333 553.18 398.04C554.58 393.747 556.447 388.707 558.78 382.92C561.207 377.04 563.913 370.833 566.9 364.3C569.887 357.767 573.013 351.28 576.28 344.84C579.547 338.4 582.72 332.427 585.8 326.92C588.88 321.413 591.727 316.747 594.34 312.92C597.047 309 599.24 306.387 600.92 305.08C603.347 303.307 605.773 302.42 608.2 302.42C609.507 302.42 610.767 302.56 611.98 302.84C613.287 303.12 614.36 303.587 615.2 304.24C617.16 305.453 618.887 307.787 620.38 311.24C621.967 314.6 623.367 318.66 624.58 323.42C625.887 328.18 626.96 333.313 627.8 338.82C628.733 344.233 629.527 349.6 630.18 354.92C633.727 354.453 636.153 354.22 637.46 354.22C640.26 354.22 642.733 354.64 644.88 355.48C647.027 356.227 648.147 357.813 648.24 360.24C648.427 362.573 647.68 364.533 646 366.12C644.413 367.707 642.36 368.873 639.84 369.62C638.72 369.993 636.013 370.6 631.72 371.44C632 376.2 632.14 380.213 632.14 383.48C632.14 391.787 631.673 398.227 630.74 402.8C629.9 407.373 628.78 410.64 627.38 412.6C626.073 414.56 624.673 415.727 623.18 416.1C621.78 416.567 620.52 416.8 619.4 416.8C619.307 416.8 619.213 416.8 619.12 416.8C616.413 416.8 614.407 416.1 613.1 414.7C611.887 413.3 611.28 410.967 611.28 407.7V397.76C611.28 394.68 611.233 391.227 611.14 387.4C611.047 383.573 610.86 379.513 610.58 375.22C605.073 376.153 599.567 377.087 594.06 378.02C588.647 378.86 583.98 379.607 580.06 380.26C578.287 384.46 576.747 388.24 575.44 391.6C574.133 394.867 573.247 397.433 572.78 399.3C571.38 403.873 570.073 407.467 568.86 410.08C567.647 412.6 566.48 414.373 565.36 415.4C564.333 416.52 563.353 417.173 562.42 417.36C561.487 417.64 560.507 417.78 559.48 417.78ZM587.76 363.04C591.68 362.107 595.46 361.267 599.1 360.52C602.74 359.68 606.193 358.933 609.46 358.28C608.993 352.493 608.433 346.847 607.78 341.34C607.127 335.833 606.38 330.933 605.54 326.64C603.113 331.307 600.267 336.907 597 343.44C593.827 349.88 590.747 356.413 587.76 363.04ZM855.75 347.36C855.75 348.667 853.976 350.113 850.43 351.7C846.883 353.287 842.123 354.967 836.15 356.74C830.27 358.42 823.69 360.1 816.41 361.78C809.13 363.367 801.756 364.813 794.29 366.12C791.676 374.8 789.11 383.573 786.59 392.44C784.07 401.213 781.876 409.427 780.01 417.08C779.543 419.133 778.47 420.673 776.79 421.7C775.203 422.727 773.476 423.24 771.61 423.24C769.276 423.24 767.363 422.587 765.87 421.28C764.376 420.067 763.63 418.48 763.63 416.52C763.63 413.16 764.563 407.793 766.43 400.42C768.296 393.047 770.536 384.693 773.15 375.36C768.856 381.52 764.516 387.167 760.13 392.3C755.743 397.433 751.59 401.633 747.67 404.9C741.51 409.94 735.116 413.953 728.49 416.94C721.956 420.02 715.423 421.56 708.89 421.56C698.436 421.56 690.83 418.947 686.07 413.72C681.31 408.493 678.93 400.747 678.93 390.48C678.93 384.6 679.583 378.767 680.89 372.98C682.29 367.1 684.156 361.593 686.49 356.46C688.823 351.233 691.483 346.613 694.47 342.6C697.456 338.587 700.583 335.46 703.85 333.22C707.116 330.887 710.383 329.72 713.65 329.72C721.676 329.72 727.51 331.867 731.15 336.16C734.883 340.36 736.75 345.54 736.75 351.7C736.75 355.9 735.536 359.913 733.11 363.74C730.776 367.567 727.65 371.113 723.73 374.38C719.81 377.553 715.423 380.26 710.57 382.5C705.81 384.74 701.003 386.373 696.15 387.4C696.15 388.053 696.15 388.753 696.15 389.5C696.15 395.473 697.27 399.58 699.51 401.82C701.843 404.06 705.576 405.18 710.71 405.18C719.203 405.18 727.65 402.38 736.05 396.78C744.543 391.087 752.943 382.407 761.25 370.74C757.423 371.02 754.11 371.16 751.31 371.16C747.296 371.16 744.683 370.553 743.47 369.34C742.35 368.033 741.79 366.213 741.79 363.88C741.79 363.133 742.116 362.247 742.77 361.22C743.516 360.1 744.403 359.12 745.43 358.28C746.55 357.347 747.716 356.88 748.93 356.88C752.943 356.507 756.816 356.133 760.55 355.76C764.376 355.387 768.016 354.967 771.47 354.5C777.91 343.487 784.163 330.747 790.23 316.28C792.843 308.907 795.55 303.027 798.35 298.64C801.243 294.16 804.23 291.92 807.31 291.92C808.896 291.92 810.343 292.573 811.65 293.88C813.05 295.093 813.75 297.053 813.75 299.76C813.75 300.973 813.05 304.007 811.65 308.86C810.343 313.62 808.57 319.64 806.33 326.92C804.09 334.2 801.663 342.133 799.05 350.72C814.076 348.293 825.696 346.1 833.91 344.14C842.123 342.087 847.303 341.06 849.45 341.06C851.41 341.06 852.95 341.713 854.07 343.02C855.19 344.327 855.75 345.773 855.75 347.36ZM698.11 373.54C701.75 371.58 705.25 369.34 708.61 366.82C711.97 364.207 714.723 361.593 716.87 358.98C719.016 356.273 720.09 353.707 720.09 351.28C720.09 349.133 719.67 347.593 718.83 346.66C718.083 345.727 716.543 345.26 714.21 345.26C712.156 345.26 710.103 346.613 708.05 349.32C705.996 352.027 704.083 355.573 702.31 359.96C700.63 364.253 699.23 368.78 698.11 373.54ZM846.583 424.92C842.289 424.92 839.209 423.707 837.343 421.28C835.476 418.853 834.543 415.307 834.543 410.64C834.543 406.347 835.336 400.747 836.923 393.84C838.603 386.84 840.796 379.047 843.503 370.46C846.303 361.78 849.429 352.867 852.883 343.72C856.336 334.48 859.929 325.427 863.663 316.56C867.396 307.6 871.036 299.387 874.583 291.92C876.263 288.653 878.036 286.413 879.903 285.2C881.769 283.987 883.823 283.38 886.063 283.38C888.209 283.38 890.029 283.987 891.523 285.2C893.016 286.32 893.763 288.14 893.763 290.66C893.763 291.22 893.016 293.367 891.523 297.1C890.029 300.74 888.069 305.5 885.643 311.38C883.216 317.167 880.556 323.7 877.663 330.98C874.769 338.167 871.876 345.68 868.983 353.52C866.089 361.267 863.476 368.92 861.143 376.48C858.809 384.04 856.943 391.04 855.543 397.48C858.809 393.093 862.309 388.24 866.043 382.92C869.869 377.507 873.743 372.14 877.663 366.82C881.676 361.407 885.596 356.46 889.423 351.98C893.343 347.5 896.983 343.907 900.343 341.2C903.703 338.493 906.643 337.14 909.163 337.14C913.829 337.14 917.563 338.447 920.363 341.06C923.256 343.58 924.703 347.967 924.703 354.22C924.703 357.113 924.143 360.613 923.023 364.72C921.903 368.733 920.549 372.98 918.963 377.46C917.469 381.847 916.163 386.093 915.043 390.2C913.923 394.307 913.363 397.9 913.363 400.98C913.363 402.66 914.156 403.5 915.743 403.5C920.316 403.5 924.936 402.52 929.603 400.56C934.363 398.6 938.889 396.173 943.183 393.28C947.569 390.293 951.536 387.353 955.083 384.46C958.723 381.473 961.663 379 963.903 377.04C965.489 375.547 966.936 374.567 968.243 374.1C969.549 373.54 970.763 373.26 971.883 373.26C975.709 373.26 977.623 375.173 977.623 379C977.623 379.747 977.483 380.68 977.203 381.8C976.923 382.827 976.036 384.133 974.543 385.72C973.049 387.307 970.809 389.547 967.823 392.44C964.836 395.333 961.336 398.413 957.323 401.68C953.403 404.947 949.109 408.073 944.443 411.06C939.869 413.953 935.156 416.333 930.303 418.2C925.449 420.067 920.736 421 916.163 421C909.256 421 903.936 419.04 900.203 415.12C896.469 411.293 894.603 406.067 894.603 399.44C894.603 394.867 895.536 389.127 897.403 382.22C899.269 375.22 901.369 368.08 903.703 360.8C900.436 363.973 897.029 367.753 893.483 372.14C889.936 376.433 886.343 381.007 882.703 385.86C879.063 390.62 875.469 395.333 871.923 400C868.469 404.573 865.156 408.773 861.983 412.6C858.809 416.333 855.916 419.32 853.303 421.56C850.689 423.8 848.449 424.92 846.583 424.92ZM1026.6 353.38C1026.6 359.447 1023.14 365.467 1016.24 371.44C1009.42 377.32 998.83 382.547 984.457 387.12C984.457 387.213 984.457 387.353 984.457 387.54C984.457 390.62 984.83 393.093 985.577 394.96C986.323 396.733 987.957 397.62 990.477 397.62C994.21 397.62 998.363 396.5 1002.94 394.26C1007.6 391.927 1012.41 388.987 1017.36 385.44C1022.4 381.8 1027.3 377.973 1032.06 373.96C1036.82 369.947 1041.2 366.167 1045.22 362.62C1049.32 358.98 1052.78 356.04 1055.58 353.8C1058.47 351.467 1060.38 350.3 1061.32 350.3C1063.28 350.3 1064.91 351.047 1066.22 352.54C1067.62 354.033 1068.32 356.273 1068.32 359.26C1068.32 360.94 1068.22 362.947 1068.04 365.28C1072.14 358.187 1076.9 352.353 1082.32 347.78C1087.73 343.113 1093.05 339.66 1098.28 337.42C1103.6 335.087 1108.12 333.92 1111.86 333.92C1116.06 333.92 1118.9 334.76 1120.4 336.44C1121.89 338.027 1122.64 339.707 1122.64 341.48C1122.64 342.507 1122.4 343.533 1121.94 344.56C1121.56 345.493 1120.54 346.52 1118.86 347.64C1117.27 348.76 1114.61 350.067 1110.88 351.56C1105.93 353.427 1101.22 355.62 1096.74 358.14C1092.35 360.66 1088.29 364.113 1084.56 368.5C1080.92 372.793 1077.6 378.58 1074.62 385.86C1071.72 393.047 1069.3 402.287 1067.34 413.58C1066.68 416.753 1065.66 418.9 1064.26 420.02C1062.86 421.233 1061.22 421.84 1059.36 421.84C1059.17 421.84 1058.84 421.84 1058.38 421.84C1057.54 421.933 1056.65 421.84 1055.72 421.56C1054.88 421.373 1054.04 420.58 1053.2 419.18C1052.45 417.873 1051.84 415.587 1051.38 412.32C1050.91 409.053 1050.68 404.387 1050.68 398.32C1050.68 394.68 1050.82 390.853 1051.1 386.84C1051.47 382.733 1051.94 378.487 1052.5 374.1C1047.74 378.767 1042.65 383.48 1037.24 388.24C1031.82 393 1026.22 397.387 1020.44 401.4C1014.74 405.32 1009.14 408.493 1003.64 410.92C998.223 413.347 993.183 414.56 988.517 414.56C982.263 414.56 977.13 412.553 973.117 408.54C969.197 404.433 967.237 398.133 967.237 389.64C967.237 381.24 968.357 373.633 970.597 366.82C972.93 359.913 975.917 353.987 979.557 349.04C983.197 344.093 987.07 340.313 991.177 337.7C995.377 334.993 999.297 333.64 1002.94 333.64C1010.68 333.64 1016.56 335.507 1020.58 339.24C1024.59 342.88 1026.6 347.593 1026.6 353.38ZM986.277 374.66C988.703 373.447 991.27 372.047 993.977 370.46C996.777 368.78 999.39 367.053 1001.82 365.28C1004.24 363.413 1006.2 361.593 1007.7 359.82C1009.28 358.047 1010.08 356.367 1010.08 354.78C1010.08 352.167 1009.33 350.58 1007.84 350.02C1006.44 349.367 1004.52 349.04 1002.1 349.04C999.577 349.04 997.29 350.393 995.237 353.1C993.183 355.713 991.41 358.98 989.917 362.9C988.423 366.82 987.21 370.74 986.277 374.66ZM1120.01 417.64C1117.11 417.64 1114.41 416.753 1111.89 414.98C1109.37 413.207 1108.11 410.313 1108.11 406.3C1108.11 403.22 1108.9 400.747 1110.49 398.88C1112.07 396.92 1113.89 395.473 1115.95 394.54C1118.09 393.607 1119.91 393.14 1121.41 393.14C1122.99 393.14 1124.77 393.513 1126.73 394.26C1128.78 394.913 1130.55 396.173 1132.05 398.04C1133.54 399.813 1134.29 402.38 1134.29 405.74C1134.29 409.007 1132.89 411.807 1130.09 414.14C1127.38 416.473 1124.02 417.64 1120.01 417.64ZM1180.05 417.78C1177.81 417.78 1175.85 417.127 1174.17 415.82C1172.49 414.513 1171.65 411.713 1171.65 407.42C1171.65 405.46 1172.35 402.333 1173.75 398.04C1175.15 393.747 1177.01 388.707 1179.35 382.92C1181.77 377.04 1184.48 370.833 1187.47 364.3C1190.45 357.767 1193.58 351.28 1196.85 344.84C1200.11 338.4 1203.29 332.427 1206.37 326.92C1209.45 321.413 1212.29 316.747 1214.91 312.92C1217.61 309 1219.81 306.387 1221.49 305.08C1223.91 303.307 1226.34 302.42 1228.77 302.42C1230.07 302.42 1231.33 302.56 1232.55 302.84C1233.85 303.12 1234.93 303.587 1235.77 304.24C1237.73 305.453 1239.45 307.787 1240.95 311.24C1242.53 314.6 1243.93 318.66 1245.15 323.42C1246.45 328.18 1247.53 333.313 1248.37 338.82C1249.3 344.233 1250.09 349.6 1250.75 354.92C1254.29 354.453 1256.72 354.22 1258.03 354.22C1260.83 354.22 1263.3 354.64 1265.45 355.48C1267.59 356.227 1268.71 357.813 1268.81 360.24C1268.99 362.573 1268.25 364.533 1266.57 366.12C1264.98 367.707 1262.93 368.873 1260.41 369.62C1259.29 369.993 1256.58 370.6 1252.29 371.44C1252.57 376.2 1252.71 380.213 1252.71 383.48C1252.71 391.787 1252.24 398.227 1251.31 402.8C1250.47 407.373 1249.35 410.64 1247.95 412.6C1246.64 414.56 1245.24 415.727 1243.75 416.1C1242.35 416.567 1241.09 416.8 1239.97 416.8C1239.87 416.8 1239.78 416.8 1239.69 416.8C1236.98 416.8 1234.97 416.1 1233.67 414.7C1232.45 413.3 1231.85 410.967 1231.85 407.7V397.76C1231.85 394.68 1231.8 391.227 1231.71 387.4C1231.61 383.573 1231.43 379.513 1231.15 375.22C1225.64 376.153 1220.13 377.087 1214.63 378.02C1209.21 378.86 1204.55 379.607 1200.63 380.26C1198.85 384.46 1197.31 388.24 1196.01 391.6C1194.7 394.867 1193.81 397.433 1193.35 399.3C1191.95 403.873 1190.64 407.467 1189.43 410.08C1188.21 412.6 1187.05 414.373 1185.93 415.4C1184.9 416.52 1183.92 417.173 1182.99 417.36C1182.05 417.64 1181.07 417.78 1180.05 417.78ZM1208.33 363.04C1212.25 362.107 1216.03 361.267 1219.67 360.52C1223.31 359.68 1226.76 358.933 1230.03 358.28C1229.56 352.493 1229 346.847 1228.35 341.34C1227.69 335.833 1226.95 330.933 1226.11 326.64C1223.68 331.307 1220.83 336.907 1217.57 343.44C1214.39 349.88 1211.31 356.413 1208.33 363.04ZM1320.85 339.24C1316.37 339.24 1313.19 338.773 1311.33 337.84C1309.46 336.907 1308.34 335.787 1307.97 334.48C1307.59 333.173 1307.41 332.053 1307.41 331.12C1307.41 331.027 1307.41 330.98 1307.41 330.98C1307.41 328.927 1308.34 326.967 1310.21 325.1C1312.07 323.14 1314.69 321.787 1318.05 321.04C1320.85 320.48 1324.16 319.92 1327.99 319.36C1331.91 318.707 1336.01 318.147 1340.31 317.68C1344.69 317.12 1348.89 316.7 1352.91 316.42C1356.92 316.14 1360.47 316 1363.55 316C1367.65 316 1370.83 316.607 1373.07 317.82C1375.31 318.94 1376.85 320.247 1377.69 321.74C1378.62 323.233 1379.09 324.493 1379.09 325.52C1379.09 326.453 1378.85 327.387 1378.39 328.32C1377.92 329.253 1376.75 330.187 1374.89 331.12C1373.11 332.053 1370.27 332.94 1366.35 333.78C1362.43 334.62 1357.01 335.413 1350.11 336.16C1349.45 336.253 1348.75 336.347 1348.01 336.44C1347.35 340.453 1346.56 345.26 1345.63 350.86C1344.69 356.367 1343.67 362.153 1342.55 368.22C1341.52 374.193 1340.49 379.933 1339.47 385.44C1338.53 390.853 1337.69 395.473 1336.95 399.3C1340.77 398.927 1344.13 398.647 1347.03 398.46C1350.01 398.273 1352.02 398.18 1353.05 398.18C1356.31 398.18 1358.55 398.88 1359.77 400.28C1360.98 401.587 1361.59 403.313 1361.59 405.46C1361.59 406.3 1360.09 407.607 1357.11 409.38C1354.12 411.153 1349.97 413.067 1344.65 415.12C1339.42 417.173 1333.4 418.993 1326.59 420.58C1322.11 421.607 1317.67 422.4 1313.29 422.96C1308.9 423.52 1305.73 423.8 1303.77 423.8C1299.94 423.8 1297.47 423.1 1296.35 421.7C1295.32 420.3 1294.81 418.527 1294.81 416.38C1294.81 414.513 1295.37 412.6 1296.49 410.64C1297.7 408.68 1299.38 407.28 1301.53 406.44C1303.77 405.6 1306.24 404.807 1308.95 404.06C1311.65 403.313 1314.45 402.66 1317.35 402.1C1317.53 399.673 1317.91 396.453 1318.47 392.44C1319.03 388.427 1319.63 384.04 1320.29 379.28C1321.03 374.427 1321.78 369.527 1322.53 364.58C1323.37 359.54 1324.16 354.827 1324.91 350.44C1325.75 345.96 1326.45 342.087 1327.01 338.82C1324.3 339.1 1322.25 339.24 1320.85 339.24Z" fill="#0E8D91"/>
</svg>
