<svg width="513" height="491" viewBox="0 0 513 491" fill="none" xmlns="http://www.w3.org/2000/svg">
<path d="M422.387 402.851C232.306 243.822 302.012 255.181 113.284 402.851C-75.4447 550.521 156.807 2.03207 290.041 10.1458C423.275 18.2596 612.468 561.88 422.387 402.851Z" stroke="#0E8D91" stroke-width="20"/>
<path d="M258.12 12.3281C270.386 4.94885 283.336 1.84203 296.297 7.18359C309.285 12.5368 322.412 26.4249 334.886 53.3584C341.081 66.7339 341.439 79.2641 337.427 91.0664C333.409 102.885 324.997 114.01 313.594 124.526C290.78 145.565 256.123 164.055 221.232 180.729C186.379 197.386 151.272 212.237 127.701 225.963C115.922 232.822 106.942 239.444 102.315 245.928C99.9951 249.179 98.7429 252.432 98.8171 255.686C98.8916 258.946 100.296 262.134 103.143 265.254C114.243 277.414 118.231 287.763 118.036 295.897C117.841 304.015 113.478 310.025 107.652 313.539C101.812 317.062 94.533 318.056 88.5769 316.151C82.6547 314.257 78.0144 309.495 77.365 301.39L77.3425 301.12L77.1062 300.99L76.7058 300.761C72.6378 298.313 70.8283 293.658 70.9578 287.111C71.0914 280.352 73.2971 271.698 77.0837 261.726C84.6533 241.79 98.4742 216.74 114.318 191.327C146.004 140.505 185.711 88.3449 199.455 72.9551C202.597 69.4369 206.303 64.8044 210.469 59.6191C214.638 54.4291 219.274 48.6759 224.289 42.8984C234.324 31.3372 245.846 19.7119 258.12 12.3281Z" fill="#0E8D91" stroke="#0E8D91"/>
<path d="M260.707 266.284C270.837 271.411 279.693 276.432 286.574 280.777C293.468 285.131 298.341 288.784 300.542 291.172C301.091 291.768 301.451 292.262 301.64 292.649C301.838 293.057 301.794 293.235 301.762 293.29C301.737 293.334 301.622 293.463 301.142 293.52C300.677 293.575 299.994 293.543 299.063 293.392C295.332 292.788 288.208 290.384 276.948 285.573C270.894 282.986 266.87 281.6 261.306 283.37C258.557 284.244 255.457 285.879 251.555 288.462C247.65 291.046 242.916 294.597 236.897 299.322C212.82 318.224 168.037 356.043 73.0041 426.627C70.6044 428.409 68.0223 429.199 65.4141 429.092C62.7984 428.986 60.1131 427.976 57.529 426.088C52.3535 422.306 47.6524 415.048 44.8689 404.815C39.3069 384.365 41.4512 352.193 62.5377 312.848L62.5639 312.799L62.5788 312.745L62.9912 311.222C71.7549 279.452 86.673 260.732 99.4494 249.937C105.942 244.451 111.888 241.006 116.203 238.935C118.361 237.899 120.111 237.206 121.319 236.773C121.922 236.557 122.39 236.406 122.705 236.31C122.863 236.261 122.982 236.226 123.061 236.204C123.1 236.193 123.13 236.184 123.149 236.179C123.158 236.177 123.166 236.174 123.17 236.173L123.175 236.172L123.196 236.167L123.217 236.159C141.262 229.928 165.464 232.295 190.296 238.833C215.105 245.364 240.445 256.03 260.707 266.284Z" fill="#0E8D91" stroke="#0E8D91"/>
</svg>
